<?xml version="1.0" standalone="no"?>
<!DOCTYPE svg PUBLIC "-//W3C//DTD SVG 20010904//EN"
 "http://www.w3.org/TR/2001/REC-SVG-20010904/DTD/svg10.dtd">
<svg version="1.0" xmlns="http://www.w3.org/2000/svg"
 width="378.000000pt" height="378.000000pt" viewBox="0 0 378.000000 378.000000"
 preserveAspectRatio="xMidYMid meet">
<metadata>
Created by potrace 1.11, written by Peter Selinger 2001-2013
</metadata>
<g transform="translate(0.000000,378.000000) scale(0.100000,-0.100000)"
fill="#000000" stroke="none">
<path d="M2718 3145 c-1 -2 -32 -5 -68 -6 -82 -3 -205 -29 -295 -63 -487 -184
-759 -709 -625 -1206 19 -72 61 -169 103 -243 l40 -69 -262 -262 c-195 -195
-265 -272 -275 -300 -42 -121 62 -256 186 -242 26 3 58 11 72 18 13 7 140 127
281 265 141 139 260 253 265 253 6 0 32 -13 58 -30 68 -42 175 -84 279 -111
70 -18 116 -23 228 -23 151 -1 185 3 291 32 263 73 501 264 628 504 78 148
110 286 110 473 1 287 -91 504 -298 710 -169 168 -388 271 -616 290 -41 4 -80
8 -87 10 -6 2 -13 2 -15 0z m237 -204 c223 -61 430 -219 540 -416 154 -274
142 -607 -31 -866 -233 -350 -662 -485 -1064 -334 -83 32 -206 110 -277 177
-390 370 -347 991 92 1303 108 77 261 140 370 152 22 3 42 7 44 9 14 13 254
-6 326 -25z"/>
<path d="M2566 2789 c-379 -91 -616 -473 -516 -835 64 -235 234 -413 465 -487
139 -45 305 -43 440 4 33 12 65 25 70 31 6 5 -3 4 -19 -2 -97 -36 -281 -48
-386 -24 -135 32 -271 108 -352 199 -61 69 -77 89 -106 145 -36 66 -38 62 45
75 44 7 52 12 58 42 2 10 15 71 30 136 l27 118 -64 78 -63 78 -42 -35 c-49
-39 -51 -35 -23 42 41 108 190 298 210 266 5 -9 38 -3 122 19 63 17 119 31
124 31 5 0 21 -19 36 -43 31 -48 72 -97 82 -97 3 0 -15 28 -42 63 -26 34 -52
68 -56 75 -6 11 2 29 42 90 21 32 207 30 316 -3 69 -21 68 -12 -1 13 -125 45
-266 52 -397 21z"/>
<path d="M3090 2706 c0 -2 15 -34 34 -70 19 -36 31 -66 28 -66 -4 0 34 -20 83
-44 50 -24 91 -42 93 -41 6 6 -48 76 -88 115 -49 47 -150 119 -150 106z"/>
<path d="M2314 2578 c-44 -49 -122 -194 -110 -205 2 -2 9 11 17 29 13 32 78
148 89 158 12 12 32 40 28 40 -2 0 -14 -10 -24 -22z"/>
<path d="M3084 2504 l-49 -47 50 38 c67 52 71 55 59 55 -6 0 -33 -21 -60 -46z"/>
<path d="M2716 2482 c-3 -9 -34 -64 -68 -121 l-63 -103 50 -53 c28 -28 69 -72
92 -97 l42 -46 150 56 c86 33 146 61 143 67 -4 6 -7 26 -9 45 -1 19 -4 55 -8
80 -3 25 -8 67 -10 94 -5 56 -8 60 -38 62 -34 2 -149 15 -177 19 -95 14 -98
14 -104 -3z"/>
<path d="M2456 2232 c-54 -15 -93 -28 -87 -30 12 -4 168 35 190 48 22 13 9 11
-103 -18z"/>
<path d="M3080 2157 c0 -2 21 -19 48 -37 26 -19 58 -44 72 -57 13 -12 26 -20
29 -18 5 6 -31 39 -84 74 -50 35 -65 43 -65 38z"/>
<path d="M3340 2055 c-41 -18 -77 -31 -80 -30 -3 2 -6 -15 -6 -38 -2 -117 -7
-203 -14 -212 -5 -6 11 -10 46 -10 61 0 65 4 103 95 25 58 25 60 37 135 10 65
9 96 -3 94 -5 -1 -42 -16 -83 -34z"/>
<path d="M2765 2040 c-3 -5 -1 -10 4 -10 6 0 11 5 11 10 0 6 -2 10 -4 10 -3 0
-8 -4 -11 -10z"/>
<path d="M2769 2018 c-1 -2 -3 -23 -5 -48 -2 -25 -8 -80 -14 -123 -15 -103 -7
-110 10 -10 12 77 20 183 14 183 -2 0 -4 -1 -5 -2z"/>
<path d="M2285 1870 c30 -38 115 -118 162 -152 30 -22 43 -40 49 -67 4 -20 9
-43 11 -51 3 -8 5 -29 5 -46 0 -17 6 -31 12 -31 6 -1 40 -9 76 -18 36 -10 99
-20 140 -24 l75 -6 48 63 c26 35 49 68 50 72 1 5 -39 37 -88 73 l-90 64 -115
-28 c-132 -33 -128 -34 -211 43 -128 119 -142 132 -124 108z"/>
<path d="M3181 1726 c-7 -8 -45 -29 -86 -47 -41 -18 -75 -36 -75 -40 0 -13
144 59 167 84 9 9 14 17 11 17 -3 0 -11 -6 -17 -14z"/>
<path d="M2985 1630 c-3 -6 1 -7 9 -4 18 7 21 14 7 14 -6 0 -13 -4 -16 -10z"/>
<path d="M64 2901 c-47 -8 -69 -54 -54 -112 8 -28 19 -43 36 -49 15 -6 320
-10 768 -10 737 0 744 0 770 21 21 17 26 29 26 65 0 41 -23 83 -47 85 -32 2
-1484 3 -1499 0z"/>
<path d="M471 2534 c-12 -15 -21 -41 -21 -59 0 -18 9 -44 21 -59 l20 -26 454
0 454 0 21 28 c17 21 21 36 17 70 -8 74 13 71 -494 72 l-452 0 -20 -26z"/>
<path d="M752 2200 c-12 -12 -22 -26 -23 -33 0 -7 -2 -21 -4 -31 -5 -24 19
-72 39 -79 9 -4 116 -7 238 -7 408 -2 395 -3 418 22 29 32 27 92 -5 123 l-24
25 -309 0 c-296 0 -309 -1 -330 -20z"/>
</g>
</svg>
